<?xml version="1.0" encoding="UTF-8"?>
<svg id="uuid-36383b33-5feb-49bc-8301-42d5669c6c08" xmlns="http://www.w3.org/2000/svg" version="1.1" viewBox="0 0 299.38 72.57">
  <!-- Generator: Adobe Illustrator 30.5.1, SVG Export Plug-In . SVG Version: 2.1.4 Build 3)  -->
  <defs>
    <style>
      .st0 {
        fill: #f0f3f1;
      }
    </style>
  </defs>
  <path class="st0" d="M145.5,46.61l-.09-.19,10.48-9.43c6.48-5.72,1.81-13.14,1.81-13.62v-.47h20.57v.47l-17.81,15.62,18.1,32v.47h-20.66l-12.38-24.85h0Z"/>
  <path class="st0" d="M183.34,56.6v-17.42c0-7.24-2.95-15.52-2.95-15.9v-.38h20.85v31.14c0,5.52,2.95,7.23,6.58,7.23,1.9,0,4-.47,5.9-1.14-.09-.77-.09-1.62-.09-2.48v-18.47c0-7.24-2.95-15.52-2.95-15.9v-.38h20.86v32.28c0,7.23,2.95,15.52,2.95,15.9v.38h-16.29c-1.33-2.19-3.05-4.76-3.9-8.38-2.76,4.86-7.23,9.34-15.14,9.34-8.95,0-15.8-5.72-15.8-15.81h0Z"/>
  <path class="st0" d="M263.45,71.46h-23.81v-.38c0-.38,2.95-8.67,2.95-15.9v-16c0-7.24-2.95-15.52-2.95-15.9v-.38h20.85v8.09c2.48-4.28,7.53-8.66,15.24-8.66,8.86,0,15.81,5.72,15.81,15.81v17.04c0,7.23,2.95,15.52,2.95,15.9v.38h-23.81v-.38c0-.38,2.95-8.67,2.95-15.9v-14.48c0-5.61-3.33-7.43-6.86-7.52-2.19-.09-4.38.57-6.29,1.43v20.57c0,7.23,2.95,15.52,2.95,15.9v.38h0Z"/>
  <path class="st0" d="M24.95,71.43H0v-.38c0-.38,2.95-8.67,2.95-15.9V19.14C2.95,11.9,0,3.62,0,3.24v-.38h24.95v.38c0,.38-2.95,8.67-2.95,15.9v36c0,7.24,2.95,15.52,2.95,15.9v.38h0ZM35.91,57.33l-12.77-19.62c-.28-.48-.38-.67.19-1.14l8.19-7.52,8.95-8.29c8-7.34,4.58-16.76,4.58-17.33v-.57h22.56v.48c-4,2.67-8.28,6.57-13.62,11.43l-15.14,14.1,20.1,28.76c4.09,5.91,10.66,13.05,10.66,13.43v.38h-29.33c0-.38-.48-8-4.38-14.09h0Z"/>
  <path class="st0" d="M67.18,47.05c0-17.52,12.47-24.76,26.37-24.76s26.48,7.33,26.48,24.76-12.67,25.52-26.48,25.52-26.37-7.99-26.37-25.52ZM100.04,47.05c0-9.43-.86-20.47-6.48-20.47s-6.37,11.14-6.37,20.47.67,21.14,6.37,21.14,6.48-11.71,6.48-21.14Z"/>
  <path class="st0" d="M147.87,71.43h-23.81v-.38c0-.38,2.95-8.67,2.95-15.9V18.19c0-7.24-3.14-15.14-3.14-15.52l-.09-.38,2.95-.38,18.18-1.9v55.14c0,7.24,2.95,15.52,2.95,15.9v.38h0Z"/>
  <rect class="st0" x="192.51" y="9.25" width="28.95" height="4.76"/>
  <rect class="st0" x="78.92" y="9.22" width="28.95" height="4.76"/>
  <path class="st0" d="M291.85,27.64v-4.28h-1.6v-.57h3.85v.57h-1.61v4.28h-.64Z"/>
  <path class="st0" d="M294.74,27.64v-4.86h.97l1.15,3.44c.11.32.18.56.23.72.05-.18.14-.44.26-.78l1.16-3.38h.87v4.86h-.62v-4.07l-1.41,4.07h-.58l-1.41-4.14v4.14h-.62,0Z"/>
</svg>